<svg xmlns="http://www.w3.org/2000/svg" id="Layer_1" viewBox="0 0 1923 515.81"><defs><style>.cls-1{stroke:#e31f26;stroke-width:3px;}.cls-1,.cls-2,.cls-3,.cls-4,.cls-5,.cls-6{fill:none;stroke-miterlimit:10;}.cls-2{stroke:#fd0100;stroke-width:.55px;}.cls-3{stroke:#fff;stroke-width:1.47px;}.cls-4{stroke:#000;stroke-width:2.62px;}.cls-5{stroke-width:2.86px;}.cls-5,.cls-6{stroke:#4d4d4d;}.cls-7,.cls-8,.cls-9,.cls-10{stroke-width:0px;}.cls-8{fill:#e31f26;}.cls-9{fill:#fff;}.cls-10{fill:#ea1d23;}.cls-6{stroke-width:2.77px;}</style></defs><path class="cls-8" d="m265.82,328.4c0,26.55,9.13,30.15,9.13,30.15h-46.73s9.13-3.6,9.13-29.2v-85.14c0-14.6-9.13-18.39-9.13-18.39l37.61-10.81v39.82c4.2-3.41,9.86-5.5,17.53-5.5,12.05,0,35.42,2.65,35.42,32.43,0,74.33,0,47.6,0,47.6,0,25.6,9.13,29.2,9.13,29.2h-46.73s9.13-3.6,9.13-30.15c0,0,0,23.13,0-56.13,0-10.24-5.11-14.98-11.87-14.98-11.32,0-12.6,8.72-12.6,21.05v50.06Z"></path><path class="cls-8" d="m383.76,257.67c-14.06,0-14.06,13.84-10.95,21.05l-30.12-5.69c2.37-17.64,19.72-23.51,40.16-23.51,35.96,0,42.72,17.45,42.72,33v45.51c0,26.93,9.13,30.53,9.13,30.53h-18.44c-5.29,0-12.96-1.9-15.88-7.78-5.66,5.5-18.99,8.15-26.11,8.15-26.47,0-46.37-5.88-46.37-31.48,0-24.08,18.99-31.86,50.57-40.39,7.67-2.09,13.69-3.6,18.44-4.55v-11.57c-.73-8.72-3.83-13.27-13.14-13.27Zm-5.29,42.48c-15.7,6.07-21.73,15.36-21.73,26.55,0,7.02,3.29,20.48,17.53,20.48,18.62,0,22.64-17.45,22.64-17.82l.37-36.6s-7.12,2.85-18.8,7.4Z"></path><path class="cls-8" d="m492.57,280.05c7.85-27.12-.18-30.53-.18-30.53h35.78s-10.22,3.6-17.71,29.2c0,0-23.19,77.56-26.11,87.61-6.21,21.05-15.33,26.17-30.12,26.17-27.39,0-18.8-33.37.55-23.32-4.93.76-4.93,10.81,2.37,10.81,4.2,0,6.94-4.55,9.49-12.52.55-1.52.91-2.47,1.09-3.41-3.47-8.15-12.23-29.39-33.59-85.33-8.94-23.51-17.71-29.2-17.71-29.2h46.73s-9.31,4.55-.18,30.53c9.13,25.6,13.87,38.87,16.25,45.7l13.33-45.7Z"></path><path class="cls-8" d="m567.97,245.54v-30.53l37.61,10.81s-8.95,3.79-8.95,18.39v85.14c0,25.6,8.95,29.2,8.95,29.2h-26.1c-3.29,0-8.58-1.33-10.59-7.4-4.2,4.74-10.22,7.58-18.8,7.58-20.63,0-40.16-20.1-40.16-54.23s18.44-54.8,40.16-54.8c8.22,0,13.87,2.65,17.89,6.45v-10.62Zm-13.51,14.41c-9.13,0-15.7,12.7-15.7,43.99,0,17.45,3.83,43.05,15.7,43.05,11.14,0,13.14-14.6,13.51-29.2v-38.31c-.73-10.81-3.83-19.53-13.51-19.53Z"></path><path class="cls-8" d="m605.58,358.55s9.13-3.6,9.13-29.2c0,0,0,24.08,0-50.06,0-14.79-9.13-18.39-9.13-18.39l37.61-11v78.51c0,26.55,9.13,30.15,9.13,30.15h-46.73Zm39.62-129.32c0,10.05-7.85,18.2-17.53,18.2s-17.53-8.15-17.53-18.2,7.85-18.01,17.53-18.01,17.53,7.96,17.53,18.01Z"></path><path class="cls-8" d="m716.53,360.43h-26.29s9.13-3.6,9.13-29.2v-85.14c0-14.6-9.13-18.39-9.13-18.39l37.61-10.81v41.15c4.02-3.79,9.86-6.45,18.07-6.45,21.54,0,39.98,20.86,39.98,54.8s-19.53,54.23-39.98,54.23c-8.76,0-14.79-2.84-18.99-7.58-2.01,6.07-7.3,7.4-10.41,7.4Zm24.83-11.57c12.05,0,15.7-25.6,15.7-43.05,0-31.29-6.57-43.99-15.7-43.99-9.67,0-12.78,9.1-13.51,20.1v34.51c.18,15.74,1.64,32.43,13.51,32.43Z"></path><path class="cls-8" d="m785.91,360.43s9.13-3.6,9.13-29.2c0,0,0,24.08,0-50.06,0-14.79-9.13-18.39-9.13-18.39l37.61-11v78.51c0,26.55,9.13,30.15,9.13,30.15h-46.73Zm39.61-129.32c0,10.05-7.85,18.2-17.53,18.2s-17.53-8.15-17.53-18.2,7.85-18.01,17.53-18.01,17.53,7.96,17.53,18.01Z"></path><path class="cls-8" d="m873.35,311.32c-12.6-3.41-39.8-7.58-39.8-32.62,0-12.52,13.14-26.93,42.72-26.93,16.61,0,39.25,6.64,41.08,21.05l-27.93,6.26c4.02-10.62-2.55-20.67-14.06-20.67-9.49,0-16.8,5.88-16.8,16.88,0,5.69,3.29,11.76,15.7,15.17,23.73,6.45,48.38,11.38,48.38,41.72,0,19.15-20.26,28.25-47.83,28.25-41.26,0-42.9-22.75-45.82-34.32l33.04-9.29c-6.76,9.1-8.76,34.89,14.42,34.89,9.68,0,16.98-7.02,16.98-18.01,0-9.67-4.02-18.01-20.08-22.38Z"></path><path class="cls-8" d="m1032.55,251.21c12.05,0,33.59,2.65,33.59,32.43,0,74.33,0,47.6,0,47.6,0,25.6,8.94,29.2,8.94,29.2h-46.73s9.13-3.6,9.13-30.15c0,0,0,23.13,0-56.13,0-10.24-4.93-14.98-11.87-14.98-10.95,0-12.41,8.34-12.6,20.29.18,1.33.18,51.77.18,51.77,0,25.6,9.13,29.2,9.13,29.2h-46.73s9.13-3.6,9.13-30.15c0,0,0,23.13,0-56.13,0-10.24-5.11-14.98-11.87-14.98-11.32,0-12.6,8.72-12.6,21.05v50.06c0,26.55,9.13,30.15,9.13,30.15h-46.73s9.13-3.6,9.13-29.2c0,0,0,23.7,0-50.63,0-14.6-9.13-18.39-9.13-18.39l37.61-10.81v4.93c4.38-3.41,10.59-5.12,19.17-5.12s20.63,1.14,27.93,11c3.83-7.02,11.32-11,25.19-11Z"></path><path class="cls-8" d="m1075.09,360.43s9.13-3.6,9.13-29.2c0,0,0,24.08,0-50.06,0-14.79-9.13-18.39-9.13-18.39l37.61-11v78.51c0,26.55,9.13,30.15,9.13,30.15h-46.73Zm39.61-129.32c0,10.05-7.85,18.2-17.53,18.2s-17.53-8.15-17.53-18.2,7.85-18.01,17.53-18.01,17.53,7.96,17.53,18.01Z"></path><path class="cls-8" d="m1121.83,360.43s9.13-3.6,9.13-29.2v-85.14c0-14.6-9.13-18.39-9.13-18.39l37.61-10.81v113.4c0,26.55,9.13,30.15,9.13,30.15h-46.73Z"></path><path class="cls-8" d="m1168.56,360.43s9.13-3.6,9.13-29.2v-85.14c0-14.6-9.13-18.39-9.13-18.39l37.61-10.81v113.4c0,26.55,9.13,30.15,9.13,30.15h-46.73Z"></path><path class="cls-8" d="m1271.16,259.55c-14.06,0-14.06,13.84-10.95,21.05l-30.12-5.69c2.37-17.64,19.72-23.51,40.16-23.51,35.96,0,42.72,17.45,42.72,33v45.51c0,26.93,9.13,30.53,9.13,30.53h-18.44c-5.29,0-12.96-1.9-15.88-7.78-5.66,5.5-18.99,8.15-26.11,8.15-26.47,0-46.37-5.88-46.37-31.48,0-24.08,18.99-31.86,50.57-40.39,7.67-2.09,13.69-3.6,18.44-4.55v-11.57c-.73-8.72-3.83-13.27-13.14-13.27Zm-5.29,42.48c-15.7,6.07-21.73,15.36-21.73,26.55,0,7.02,3.29,20.48,17.53,20.48,18.62,0,22.64-17.45,22.64-17.82l.37-36.6s-7.12,2.85-18.8,7.4Z"></path><path class="cls-8" d="m1359.7,330.28c0,26.55,9.13,30.15,9.13,30.15h-46.73s9.13-3.6,9.13-29.2v-85.14c0-14.6-9.13-18.39-9.13-18.39l37.61-10.81v39.82c4.2-3.41,9.86-5.5,17.53-5.5,12.05,0,35.42,2.65,35.42,32.43,0,74.33,0,47.6,0,47.6,0,25.6,9.13,29.2,9.13,29.2h-46.73s9.13-3.6,9.13-30.15c0,0,0,23.13,0-56.13,0-10.24-5.11-14.98-11.87-14.98-11.32,0-12.6,8.72-12.6,21.05v50.06Z"></path><path class="cls-8" d="m541.86,172.62c-6.02,0-11.22-1.95-15.6-5.84l4.78-5.74c3.61,2.99,7.27,4.49,10.98,4.49,1.65,0,2.95-.31,3.91-.93.94-.62,1.42-1.47,1.42-2.55v-.1c0-1.05-.49-1.9-1.47-2.55-.98-.65-2.75-1.32-5.3-1.99-2.54-.64-4.46-1.21-5.75-1.73-3.25-1.29-5.34-3.01-6.26-5.17-.55-1.25-.82-2.77-.82-4.55v-.1c0-3.36,1.2-6.05,3.59-8.07,2.39-2.02,5.48-3.03,9.27-3.03,5.21,0,9.76,1.55,13.64,4.64l-4.19,6.11c-3.48-2.43-6.67-3.65-9.56-3.66-1.51,0-2.67.3-3.5.9-.82.6-1.24,1.38-1.26,2.32v.1c0,1.2.51,2.11,1.54,2.71,1.03.6,3.36,1.38,6.98,2.32,3.63.93,6.38,2.22,8.27,3.86s2.83,3.99,2.81,7.04v.1c0,3.56-1.23,6.36-3.69,8.38-2.46,2.02-5.72,3.03-9.79,3.03Z"></path><path class="cls-8" d="m563.76,172.11l15.8-37.1h7.45l15.8,37.1h-8.48l-3.37-8.32h-15.57l-3.37,8.32h-8.27Zm14.52-15.41h9.79l-4.88-11.95-4.91,11.95Z"></path><path class="cls-8" d="m609.51,172.11l15.8-37.1h7.45l15.8,37.1h-8.48l-3.37-8.32h-15.57l-3.37,8.32h-8.27Zm14.52-15.41h9.79l-4.88-11.95-4.91,11.95Z"></path><path class="cls-8" d="m659.48,172.11v-36.84h14.35c5.72,0,10.41,1.75,14.07,5.24,3.66,3.49,5.49,7.85,5.49,13.08v.1c0,5.26-1.83,9.64-5.49,13.15-3.66,3.51-8.35,5.27-14.07,5.27h-14.35Zm8.09-7.32h6.27c3.31-.02,5.99-1.04,8.04-3.06,2.06-2.02,3.07-4.67,3.06-7.94v-.1c0-3.25-1.03-5.92-3.08-7.99-2.05-2.07-4.73-3.11-8.01-3.11h-6.27v22.2Z"></path><path class="cls-8" d="m705.87,172.11v-36.84h27.77v7.22h-19.78v7.45h17.42v7.22h-17.42v7.73h20.06v7.22h-28.05Z"></path><path class="cls-8" d="m754.96,172.11v-29.36h-11.2v-7.48h30.49v7.48h-11.2v29.36h-8.09Z"></path><path class="cls-8" d="m807.13,172.11v-36.84h8.09v36.84h-8.09Zm.1-39.72v-6.68h7.89v6.68h-7.89Z"></path><path class="cls-8" d="m842.92,165.43c1.65,0,2.95-.31,3.91-.93.94-.62,1.42-1.46,1.42-2.54v-.1c0-1.04-.49-1.89-1.47-2.54-.98-.65-2.75-1.31-5.3-1.98-2.54-.63-4.46-1.21-5.75-1.72-3.25-1.28-5.34-3.01-6.26-5.16-.55-1.25-.82-2.77-.82-4.55v-.1c0-3.35,1.2-6.03,3.59-8.04,2.39-2.01,5.48-3.01,9.27-3.01,5.21,0,9.76,1.55,13.64,4.64l-4.19,6.1c-3.48-2.41-6.67-3.63-9.56-3.65-1.51,0-2.67.3-3.5.9-.82.6-1.24,1.37-1.26,2.31v.1c0,1.2.51,2.1,1.54,2.7,1.03.6,3.36,1.37,6.98,2.31,3.63.92,6.38,2.21,8.27,3.85,1.89,1.64,2.83,3.99,2.81,7.04v.1c0,3.19-.99,5.75-2.97,7.71-1.98,1.95-4.62,3.14-7.93,3.55l-3.53,8.74-6.68-2.77,4.11-6.06c-4.68-.67-8.7-2.54-12.08-5.63l4.78-5.73c3.61,2.98,7.27,4.47,10.98,4.47Z"></path><path class="cls-8" d="m889.66,172.11v-36.84h17.12c4.25,0,7.46,1.09,9.62,3.27,1.68,1.68,2.53,3.78,2.55,6.28v.1c0,3.48-1.63,6.13-4.88,7.95,2.29.89,4.01,2.03,5.18,3.44,1.17,1.4,1.75,3.27,1.75,5.62v.1c.02,3.3-1.21,5.81-3.68,7.51-2.47,1.71-5.85,2.57-10.13,2.57h-17.54Zm7.89-21.89h7.48c3.89,0,5.83-1.31,5.83-3.94v-.1c0-2.54-1.76-3.81-5.29-3.81h-8.02v7.86Zm0,14.8h9.63c3.82,0,5.73-1.34,5.73-4.01v-.1c0-2.67-2-4.01-5.99-4.01h-9.38v8.12Z"></path><path class="cls-8" d="m929.73,172.11l15.8-37.1h7.45l15.8,37.1h-8.48l-3.37-8.32h-15.57l-3.37,8.32h-8.27Zm14.52-15.41h9.79l-4.88-11.95-4.91,11.95Z"></path><path class="cls-8" d="m992.4,165.43c1.65,0,2.95-.31,3.91-.93.94-.62,1.42-1.46,1.42-2.54v-.1c0-1.04-.49-1.89-1.47-2.54-.98-.65-2.75-1.31-5.3-1.98-2.54-.63-4.46-1.21-5.75-1.72-3.25-1.28-5.34-3.01-6.26-5.16-.55-1.25-.82-2.77-.82-4.55v-.1c0-3.35,1.2-6.03,3.59-8.04,2.39-2.01,5.48-3.01,9.27-3.01,5.21,0,9.76,1.55,13.64,4.64l-4.19,6.1c-3.48-2.41-6.67-3.63-9.56-3.65-1.51,0-2.67.3-3.5.9-.82.6-1.24,1.37-1.26,2.31v.1c0,1.2.51,2.1,1.54,2.7,1.03.6,3.36,1.37,6.98,2.31,3.63.92,6.38,2.21,8.27,3.85,1.89,1.64,2.83,3.99,2.81,7.04v.1c0,3.19-.99,5.75-2.97,7.71-1.98,1.95-4.62,3.14-7.93,3.55l-3.53,8.74-6.68-2.77,4.11-6.06c-4.68-.67-8.7-2.54-12.08-5.63l4.78-5.73c3.61,2.98,7.27,4.47,10.98,4.47Z"></path><path class="cls-8" d="m1018.46,172.11v-36.84h8.09v36.84h-8.09Z"></path><path class="cls-8" d="m1041.03,172.11v-36.84h7.48l17.26,22.69v-22.69h7.99v36.84h-6.88l-17.85-23.4v23.4h-7.99Z"></path><path class="cls-8" d="m1084.68,172.11l15.8-37.1h7.45l15.8,37.1h-8.48l-3.37-8.32h-15.57l-3.37,8.32h-8.27Zm14.52-15.41h9.79l-4.88-11.95-4.91,11.95Z"></path><path class="cls-10" d="m1745.38,180.65l-147.4,16.26-28.69-171.6,147.4-16.26,28.69,171.6Z"></path><polygon class="cls-9" points="1681.16 66.94 1685.97 70.71 1690.67 67.41 1688.94 73.03 1693.75 76.79 1687.87 76.5 1686.15 82.12 1684.24 76.32 1678.36 76.03 1683.06 72.74 1681.16 66.94"></polygon><polygon class="cls-9" points="1684.45 37.36 1687.2 45.72 1695.68 46.13 1688.91 50.89 1691.67 59.25 1684.72 53.83 1677.95 58.59 1680.44 50.48 1673.49 45.07 1681.97 45.47 1684.45 37.36"></polygon><polygon class="cls-9" points="1652.48 66.57 1656.61 70.03 1660.85 67.29 1659.15 72.16 1663.27 75.62 1658.1 75.18 1656.41 80.04 1654.91 74.9 1649.74 74.45 1653.98 71.72 1652.48 66.57"></polygon><polygon class="cls-9" points="1655.65 45.94 1661.32 50.52 1667 46.7 1664.82 53.35 1670.49 57.94 1663.48 57.47 1661.31 64.12 1659.15 57.18 1652.14 56.71 1657.81 52.89 1655.65 45.94"></polygon><path class="cls-9" d="m1685.58,105.12c-1.67,16.85-14.33,30.49-31.76,32.41-20.91,2.31-40.75-13.13-44.32-34.48-3.14-18.77,7.36-35.86,24.16-41.28-8.55,6.99-13.13,18.54-11.05,30.94,3.14,18.77,20.32,32.38,38.37,30.39,11.28-1.24,20.24-8.29,24.6-17.99"></path><polygon class="cls-9" points="1667.12 78.49 1670.71 81.45 1674.35 79.06 1672.92 83.28 1676.5 86.24 1672.03 85.89 1670.59 90.12 1669.27 85.68 1664.8 85.33 1668.45 82.93 1667.12 78.49"></polygon><path class="cls-9" d="m1619.08,167.09c-1.55.17-3.11.07-4.7-.31-1.58-.37-3.07-1.05-4.48-2.03l2.11-3.49c1.06.66,2.11,1.16,3.17,1.51,1.05.34,2.16.45,3.32.32.93-.1,1.62-.35,2.08-.75.46-.4.63-.9.53-1.51v-.06c-.06-.29-.16-.55-.3-.76-.15-.21-.38-.4-.72-.56-.33-.16-.78-.31-1.35-.45-.57-.14-1.3-.27-2.19-.39-1.07-.14-2.05-.32-2.94-.54-.89-.22-1.66-.53-2.32-.93-.66-.4-1.21-.92-1.64-1.57-.43-.65-.74-1.49-.91-2.5v-.06c-.17-.94-.14-1.81.08-2.6.22-.79.6-1.5,1.13-2.11.53-.62,1.21-1.12,2.03-1.51.82-.39,1.75-.64,2.8-.76,1.49-.16,2.9-.09,4.22.22,1.32.31,2.58.83,3.77,1.56l-1.75,3.66c-1.01-.53-1.99-.92-2.92-1.19-.93-.27-1.83-.35-2.7-.25-.87.1-1.5.34-1.88.73-.38.39-.52.84-.44,1.35v.06c.07.33.18.61.34.85.17.23.43.43.79.59.36.16.85.3,1.45.41.6.11,1.36.24,2.27.38,1.07.16,2.04.37,2.91.62.86.25,1.61.59,2.25,1.01.63.42,1.14.94,1.53,1.55.39.62.66,1.37.81,2.28v.06c.18,1.02.15,1.95-.08,2.78-.23.83-.63,1.56-1.2,2.17-.56.61-1.28,1.11-2.14,1.49-.86.38-1.84.64-2.95.76"></path><path class="cls-9" d="m1631.69,144.3l4.12-.45,12.18,19.75-4.68.52-2.63-4.41-8.6.95-1.09,4.82-4.56.5,5.25-21.67Zm6.73,11.58l-3.82-6.37-1.59,6.97,5.4-.6Z"></path><path class="cls-9" d="m1652.46,142.01l4.12-.45,12.18,19.75-4.68.52-2.63-4.41-8.6.95-1.09,4.82-4.56.5,5.25-21.67Zm6.73,11.58l-3.82-6.37-1.59,6.97,5.4-.6Z"></path><polygon class="cls-9" points="1686.44 138.41 1701.75 136.73 1702.42 140.75 1691.53 141.95 1692.23 146.12 1701.81 145.07 1702.49 149.09 1692.9 150.15 1693.62 154.47 1704.66 153.25 1705.33 157.27 1689.88 158.98 1686.44 138.41"></polygon><polygon class="cls-9" points="1710.44 140.02 1704.25 140.7 1703.55 136.53 1720.4 134.67 1721.1 138.84 1714.91 139.52 1717.65 155.92 1713.18 156.41 1710.44 140.02"></polygon><path class="cls-9" d="m1684.89,144.88c-.73-1.19-1.65-2.19-2.77-3-1.11-.81-2.37-1.41-3.79-1.78-1.41-.37-2.91-.47-4.5-.3l-7.93.87,2.44,14.59c1.42,5.99,6.94,5.32,6.94,5.32l1.99-.22c1.59-.18,3-.6,4.24-1.28,1.24-.68,2.26-1.53,3.06-2.55.81-1.03,1.36-2.2,1.68-3.51.31-1.31.35-2.69.11-4.14v-.06c-.25-1.45-.74-2.77-1.47-3.95m-3.2,4.59c.15.92.14,1.77-.03,2.55-.18.78-.48,1.47-.92,2.08-.44.61-1.01,1.1-1.72,1.48-.71.38-1.51.62-2.42.72l-3.46.38-2.07-12.4,3.46-.38c.91-.1,1.77-.04,2.57.18.81.22,1.52.58,2.15,1.07.62.49,1.15,1.1,1.58,1.83.43.73.72,1.55.87,2.45v.06Z"></path><line class="cls-6" x1="1603.95" y1="279.42" x2="1766.72" y2="261.47"></line><line class="cls-6" x1="1638.25" y1="484.57" x2="1801.01" y2="466.61"></line><ellipse class="cls-5" cx="1702.48" cy="373.02" rx="77.24" ry="81.93" transform="translate(317.7 1431.31) rotate(-49.75)"></ellipse><path class="cls-8" d="m1643.51,371.04l4.07,14.41,7.67-1.71c1.99-.44,3.24-1.06,3.72-1.83.66-1.02.75-2.58.26-4.69l.95-.21,3.59,12.69-.95.21c-.74-1.72-1.3-2.8-1.68-3.25-.49-.56-1.13-.94-1.94-1.14-.8-.2-1.94-.14-3.4.19l-7.67,1.71,3.4,12.02c.46,1.61.8,2.58,1.04,2.9.24.32.55.54.96.67.4.13,1.08.09,2.04-.13l5.92-1.32c1.97-.44,3.37-.9,4.18-1.39.81-.49,1.51-1.24,2.1-2.27.75-1.35,1.37-3.27,1.85-5.76l1.03-.23-.43,9.81-26.91,6.01-.28-1,1.24-.28c.82-.18,1.55-.56,2.17-1.14.47-.41.72-.93.75-1.54.03-.61-.2-1.81-.7-3.59l-6.69-23.68c-.65-2.31-1.28-3.69-1.88-4.12-.82-.58-1.95-.71-3.39-.38l-1.24.28-.28-1,26.91-6.01,2.64,7.9-1,.22c-.9-1.84-1.67-3.06-2.31-3.68-.64-.62-1.44-1.02-2.41-1.2-.76-.11-2.01.02-3.75.41l-9.58,2.14Z"></path><path class="cls-8" d="m1700.52,356.19l.28,1c-1.17.51-1.99,1.13-2.46,1.86-.66,1.08-1.09,2.61-1.28,4.57l-3.41,33.74-.95.21-21.96-28.5c-1.13-1.46-1.88-2.34-2.25-2.64-.59-.46-1.24-.77-1.96-.95-.71-.17-1.62-.19-2.7-.04l-.28-1,14.26-3.19.28,1c-1.57.52-2.54,1.04-2.9,1.56-.36.52-.46,1.1-.27,1.75.25.9,1.04,2.2,2.37,3.93l14.92,19.38,2.28-22.94c.22-2.26.21-3.79-.01-4.6-.15-.52-.54-.96-1.17-1.32-.63-.36-1.56-.51-2.81-.45-.09,0-.24,0-.46.02l-.28-1,10.76-2.4Z"></path><path class="cls-8" d="m1711.7,355.81l4.07,14.41,7.67-1.72c1.99-.44,3.23-1.06,3.72-1.83.66-1.02.75-2.59.26-4.69l.95-.21,3.59,12.69-.95.21c-.74-1.72-1.31-2.8-1.69-3.25-.49-.56-1.13-.94-1.94-1.14-.8-.2-1.94-.14-3.39.19l-7.67,1.72,3.4,12.01c.46,1.61.8,2.58,1.04,2.9.24.32.56.54.96.67.4.13,1.08.09,2.04-.13l5.92-1.32c1.97-.44,3.37-.91,4.18-1.39.81-.49,1.51-1.24,2.09-2.27.75-1.35,1.37-3.27,1.85-5.76l1.03-.23-.43,9.81-26.91,6.01-.28-1,1.24-.28c.82-.18,1.55-.56,2.17-1.14.47-.41.72-.92.75-1.54.04-.62-.2-1.81-.7-3.58l-6.69-23.68c-.65-2.31-1.28-3.69-1.88-4.12-.82-.58-1.95-.71-3.4-.38l-1.24.28-.28-1,26.91-6.01,2.64,7.9-1,.22c-.9-1.84-1.67-3.06-2.31-3.68-.64-.62-1.44-1.02-2.41-1.21-.76-.11-2.01.02-3.75.41l-9.58,2.14Z"></path><path class="cls-8" d="m1761.78,342.51l2.8,8.46-.98.22c-.62-1.46-1.18-2.48-1.68-3.05-.83-.92-1.75-1.53-2.78-1.82-1.02-.3-2.25-.28-3.7.04l-4.92,1.1,7.87,27.84c.63,2.24,1.26,3.58,1.88,4.04.87.61,1.97.76,3.33.46l1.21-.27.28,1-14.8,3.31-.28-1,1.24-.28c1.48-.33,2.39-1.03,2.74-2.1.22-.66.04-2-.54-4.05l-7.87-27.84-4.2.94c-1.63.36-2.76.75-3.37,1.15-.8.54-1.38,1.37-1.74,2.48-.36,1.11-.37,2.5-.02,4.18l-.98.22-2-8.64,28.5-6.36Z"></path><ellipse class="cls-2" cx="1702.48" cy="373.02" rx="74.36" ry="78.88" transform="translate(317.7 1431.31) rotate(-49.75)"></ellipse><ellipse class="cls-3" cx="1702.48" cy="373.02" rx="81.06" ry="85.99" transform="translate(317.7 1431.31) rotate(-49.75)"></ellipse><line class="cls-4" x1="1865.65" y1="482.94" x2="1785.17" y2="1.5"></line><line class="cls-4" x1="1500.83" y1="32.87" x2="1581.31" y2="514.31"></line><path class="cls-7" d="m1597.86,232.87c-1.07-1.22-2.12-1.94-3.37-1.81-1.46.16-2,1.17-1.75,2.67.29,1.73,1.32,2.33,3.67,2.85,3.99.86,5.84,2.32,6.49,6.22.6,3.61-1.12,6.67-5.16,7.11-3.13.35-5.47-.47-7.54-2.84l2.8-2.72c1.19,1.17,2.25,2,3.81,1.83,1.7-.19,2.09-1.37,1.87-2.71-.26-1.54-1.07-2.33-3.87-2.93-3.73-.83-5.72-2.69-6.33-6.34-.58-3.48.94-6.42,5.2-6.89,2.8-.31,5.25.59,6.87,2.89l-2.68,2.67Z"></path><path class="cls-7" d="m1608.37,248.44l-4.44.49,2.37-22.72,4.14-.46,9.74,21.39-4.44.49-1.71-4.08-5.35.59-.3,4.3Zm1.05-16.13l-.53,7.97,3.65-.4-3.12-7.56Z"></path><path class="cls-7" d="m1624.34,246.68l-4.44.49,2.37-22.73,4.14-.46,9.74,21.39-4.44.49-1.7-4.08-5.36.59-.3,4.3Zm1.05-16.13l-.53,7.97,3.65-.4-3.12-7.57Z"></path><path class="cls-7" d="m1637.2,245.26l-3.69-22.06,6.51-.72c4.08-.45,7.33,1.8,8.51,8.83l.48,2.88c1.17,7-1.22,9.9-5.3,10.35l-6.51.72Zm7.56-10.6l-.48-2.88c-.62-3.71-1.42-5.73-3.61-5.49l-2.25.25,2.42,14.45,2.25-.25c2.19-.24,2.3-2.37,1.68-6.08Z"></path><path class="cls-7" d="m1660.38,220.24l.63,3.77-6.82.75.83,4.99,6.05-.67.63,3.77-6.05.67.96,5.75,6.82-.75.63,3.77-11.08,1.22-3.69-22.06,11.08-1.22Z"></path><path class="cls-7" d="m1674.1,218.73l.64,3.8-4.56.5,3.05,18.25-4.26.47-3.05-18.25-4.56.5-.64-3.8,13.39-1.48Z"></path><path class="cls-7" d="m1687.98,231.75l1.3,7.77-4.26.47-3.69-22.06,6.57-.73c4.05-.44,7.09,1.6,7.88,6.33.78,4.67-1.41,7.51-5.49,7.96l-2.31.26Zm.95-3.95c2.29-.25,2.99-1.44,2.59-3.8-.35-2.11-1.43-3.16-3.71-2.91l-1.58.17,1.12,6.71,1.58-.17Z"></path><path class="cls-7" d="m1701.21,238.2l-4.44.49,2.37-22.73,4.14-.46,9.74,21.39-4.44.49-1.71-4.08-5.35.59-.3,4.3Zm1.05-16.13l-.52,7.97,3.65-.4-3.13-7.57Z"></path><path class="cls-7" d="m1723.51,235.74l-4.52-8.32-2.1.23,1.45,8.66-4.26.47-3.69-22.06,6.57-.73c4.05-.44,7.08,1.53,7.82,6.01.5,2.97-.3,5.05-1.94,6.2l5.14,9.04-4.47.49Zm-5.43-12.06c1.8-.2,2.82-.9,2.44-3.2-.39-2.3-1.62-2.82-3.41-2.62l-1.83.2.97,5.82,1.83-.2Z"></path><path class="cls-7" d="m1737.49,211.74l.64,3.8-4.56.5,3.05,18.25-4.26.47-3.05-18.25-4.56.5-.64-3.8,13.39-1.48Z"></path><path class="cls-7" d="m1738.15,205.84l4.26-.47.59,3.52-4.26.47-.59-3.52Zm8.9,27.31l-4.26.47-3.69-22.06,4.26-.47,3.69,22.06Z"></path><path class="cls-7" d="m1756.5,215.37c-1.07-1.22-2.12-1.94-3.37-1.81-1.46.16-2,1.17-1.75,2.67.29,1.73,1.32,2.33,3.67,2.85,3.99.86,5.84,2.32,6.49,6.22.6,3.61-1.12,6.67-5.16,7.11-3.13.35-5.47-.47-7.54-2.85l2.8-2.72c1.19,1.17,2.25,2,3.81,1.83,1.7-.19,2.09-1.37,1.87-2.71-.26-1.54-1.07-2.32-3.87-2.93-3.73-.83-5.72-2.69-6.33-6.34-.58-3.48.94-6.42,5.2-6.89,2.8-.31,5.25.59,6.87,2.89l-2.68,2.67Z"></path><path class="cls-7" d="m1760.26,203.4l4.26-.47.59,3.52-4.26.47-.59-3.52Zm8.9,27.31l-4.26.47-3.69-22.06,4.26-.47,3.69,22.06Z"></path><rect class="cls-1" x="1.5" y="1.5" width="1920" height="512.81"></rect></svg>